<svg xmlns="http://www.w3.org/2000/svg" id="baac059f-d877-4ea9-b660-ba3d2bf3c2ab" data-name="Layer 1" viewBox="0 0 296.3 46.34"><defs><style>.f59788af-40a3-4d86-b92b-2e86439552b2{fill:#384793}.e9a598a2-550a-496b-981b-71de19ed049b{fill:#34c1d6}</style></defs><path class="f59788af-40a3-4d86-b92b-2e86439552b2" d="M13.18 9.14H0v-9h36.54v9H23.36v37.2H13.18zM95.85.14h13.83l19.64 32.1h.14V.14h10.17v46.2h-13.31l-20.16-32.89H106v32.89H95.85zM155.55.14h15.27a43.42 43.42 0 0 1 10.54 1.24 24.13 24.13 0 0 1 8.71 4A19.68 19.68 0 0 1 196 12.6a24.3 24.3 0 0 1 2.18 10.77 22 22 0 0 1-2.18 9.88 21.19 21.19 0 0 1-5.71 7.18 25.13 25.13 0 0 1-8.28 4.41 32.26 32.26 0 0 1-9.86 1.5h-16.6zm10.18 36.8H171a28.42 28.42 0 0 0 6.56-.72 14 14 0 0 0 5.25-2.38 11.39 11.39 0 0 0 3.49-4.37 15.48 15.48 0 0 0 1.27-6.62 12.9 12.9 0 0 0-1.27-5.91 11.84 11.84 0 0 0-3.43-4.14 15 15 0 0 0-5-2.45 22.63 22.63 0 0 0-6.1-.81h-6zM259.24.14h17.87a32 32 0 0 1 6.69.68 15.89 15.89 0 0 1 5.55 2.29 11.31 11.31 0 0 1 3.78 4.31 14.48 14.48 0 0 1 1.41 6.75 13.56 13.56 0 0 1-2.54 8.32 11.49 11.49 0 0 1-7.44 4.34l11.74 19.51h-12.2l-9.66-18.47h-5v18.47h-10.2zm10.17 19.12h6c.91 0 1.88 0 2.9-.1a9.08 9.08 0 0 0 2.77-.59 4.74 4.74 0 0 0 2.07-1.57 4.7 4.7 0 0 0 .85-2.9 4.84 4.84 0 0 0-.71-2.8 4.77 4.77 0 0 0-1.83-1.6 8.12 8.12 0 0 0-2.58-.7 21 21 0 0 0-2.81-.2h-6.66z"/><path class="e9a598a2-550a-496b-981b-71de19ed049b" d="M47.68 18.6h30.88v8.83H47.68zM47.68 0h30.88v8.83H47.68zM47.68 37.2h30.88v8.83H47.68zM210.99 18.6h30.88v8.83h-30.88zM210.99 0h30.88v8.83h-30.88zM210.99 37.2h30.88v8.83h-30.88z"/></svg>